HIERARCHY
ROOT Hips
{
	OFFSET 0.00000 0.00000 0.00000
	CHANNELS 6 Xposition Yposition Zposition Zrotation Yrotation Xrotation 
	JOINT LHipJoint
	{
		OFFSET 0 0 0
		CHANNELS 3 Zrotation Yrotation Xrotation
		JOINT LeftUpLeg
		{
			OFFSET 1.38615 -1.80049 0.80104
			CHANNELS 3 Zrotation Yrotation Xrotation
			JOINT LeftLeg
			{
				OFFSET 2.50172 -6.87341 0.00000
				CHANNELS 3 Zrotation Yrotation Xrotation
				JOINT LeftFoot
				{
					OFFSET 2.67523 -7.35014 0.00000
					CHANNELS 3 Zrotation Yrotation Xrotation
					JOINT LeftToeBase
					{
						OFFSET 0.17446 -0.47932 2.13155
						CHANNELS 3 Zrotation Yrotation Xrotation
						End Site
						{
							OFFSET 0.00000 -0.00000 1.10023
						}
					}
				}
			}
		}
	}
	JOINT RHipJoint
	{
		OFFSET 0 0 0
		CHANNELS 3 Zrotation Yrotation Xrotation
		JOINT RightUpLeg
		{
			OFFSET -1.18047 -1.80049 0.80104
			CHANNELS 3 Zrotation Yrotation Xrotation
			JOINT RightLeg
			{
				OFFSET -2.59789 -7.13765 0.00000
				CHANNELS 3 Zrotation Yrotation Xrotation
				JOINT RightFoot
				{
					OFFSET -2.62125 -7.20183 0.00000
					CHANNELS 3 Zrotation Yrotation Xrotation
					JOINT RightToeBase
					{
						OFFSET -0.31287 -0.85960 2.07814
						CHANNELS 3 Zrotation Yrotation Xrotation
						End Site
						{
							OFFSET -0.00000 -0.00000 1.11766
						}
					}
				}
			}
		}
	}
	JOINT LowerBack
	{
		OFFSET 0 0 0
		CHANNELS 3 Zrotation Yrotation Xrotation
		JOINT Spine
		{
			OFFSET -0.01587 2.16157 -0.12309
			CHANNELS 3 Zrotation Yrotation Xrotation
			JOINT Spine1
			{
				OFFSET 0.04727 2.16674 -0.03569
				CHANNELS 3 Zrotation Yrotation Xrotation
				JOINT Neck
				{
					OFFSET 0 0 0
					CHANNELS 3 Zrotation Yrotation Xrotation
					JOINT Neck1
					{
						OFFSET -0.08586 1.60335 0.32783
						CHANNELS 3 Zrotation Yrotation Xrotation
						JOINT Head
						{
							OFFSET 0.07583 1.65857 -0.31618
							CHANNELS 3 Zrotation Yrotation Xrotation
							End Site
							{
								OFFSET 0.03386 1.69434 -0.14584
							}
						}
					}
				}
				JOINT LeftShoulder
				{
					OFFSET 0 0 0
					CHANNELS 3 Zrotation Yrotation Xrotation
					JOINT LeftArm
					{
						OFFSET 3.17393 1.01901 -0.52897
						CHANNELS 3 Zrotation Yrotation Xrotation
						JOINT LeftForeArm
						{
							OFFSET 5.25287 -0.00000 -0.00000
							CHANNELS 3 Zrotation Yrotation Xrotation
							JOINT LeftHand
							{
								OFFSET 3.51014 -0.00000 0.00000
								CHANNELS 3 Zrotation Yrotation Xrotation
								JOINT LeftFingerBase
								{
									OFFSET 0 0 0
									CHANNELS 3 Zrotation Yrotation Xrotation
									JOINT LeftHandIndex1
									{
										OFFSET 0.70618 -0.00000 -0.00000
										CHANNELS 3 Zrotation Yrotation Xrotation
										End Site
										{
											OFFSET 0.56934 -0.00000 -0.00000
										}
									}
								}
								JOINT LThumb
								{
									OFFSET 0 0 0
									CHANNELS 3 Zrotation Yrotation Xrotation
									End Site
									{
										OFFSET 0.57803 -0.00000 0.57803
									}
								}
							}
						}
					}
				}
				JOINT RightShoulder
				{
					OFFSET 0 0 0
					CHANNELS 3 Zrotation Yrotation Xrotation
					JOINT RightArm
					{
						OFFSET -2.99471 1.26495 -0.61125
						CHANNELS 3 Zrotation Yrotation Xrotation
						JOINT RightForeArm
						{
							OFFSET -5.28721 -0.00000 -0.00000
							CHANNELS 3 Zrotation Yrotation Xrotation
							JOINT RightHand
							{
								OFFSET -3.50544 -0.00000 0.00000
								CHANNELS 3 Zrotation Yrotation Xrotation
								JOINT RightFingerBase
								{
									OFFSET 0 0 0
									CHANNELS 3 Zrotation Yrotation Xrotation
									JOINT RightHandIndex1
									{
										OFFSET -0.88500 -0.00000 -0.00000
										CHANNELS 3 Zrotation Yrotation Xrotation
										End Site
										{
											OFFSET -0.71351 -0.00000 -0.00000
										}
									}
								}
								JOINT RThumb
								{
									OFFSET 0 0 0
									CHANNELS 3 Zrotation Yrotation Xrotation
									End Site
									{
										OFFSET -0.72440 -0.00000 0.72440
									}
								}
							}
						}
					}
				}
			}
		}
	}
}
MOTION
Frames: 5
Frame Time: 0.4
0.00 0.00 0.00 0 0 0 0 0 0 -21 0 0 0 0 0 0 0 0 0 0 0 0 0 0 21 0 0 0 0 0 0 0 0 0 0 0 0 0 0 0 0 0 0 0 0 0 0 -16 0 0 21 0 0 11 0 0 0 -8 0 0 0 0 0 0 0 0 0 0 0 0 0 0 0 0 0 0 0 0 8 0 0 0 0 0 0 0 0 0 0 0 0 0 0 0 0 0
0.00 0.00 0.00 -177.6680 -20.6905 -168.8200 0.0000 0.0000 0.0000 -7.2984 -9.7737 -15.9920 5.5086 13.9346 42.9761 -1.0778 -20.7601 18.9440 0.9450 -6.1913 -17.3405 0.0000 0.0000 0.0000 25.9596 0.3667 -22.1571 -1.9954 -8.8565 25.3476 -0.3757 -9.2479 -18.4112 -0.1917 2.8197 -7.7773 4.8220 3.3392 5.0103 -2.4847 4.6521 -0.1864 -5.5865 2.2437 -2.4068 -14.3549 -9.1840 -15.9591 10.2386 -12.2160 21.8527 4.1831 -5.8035 11.2703 0.0000 0.0000 0.0000 -77.5327 7.8854 22.1718 18.8301 -29.2070 -4.9477 -0.0000 -0.0000 0.1670 6.1113 37.7394 3.7495 -7.1250 0.0000 -0.0000 -35.7947 64.3791 -17.8774 0.0000 0.0000 0.0000 28.1248 59.6406 -28.6069 -29.9689 40.8668 -11.3893 0.0000 0.0000 21.3478 -35.3785 10.2943 -7.2321 7.1250 -0.0000 -0.0000 -5.8332 -17.4613 -3.8341
0.00 0.00 0.00 -178.5250 -26.8440 -168.8180 0.0000 0.0000 0.0000 -4.7812 -14.7041 -20.9981 6.9372 15.2788 48.6363 -0.8661 -16.2186 5.6127 0.3659 -3.8859 -10.7558 0.0000 0.0000 0.0000 27.2361 -1.9573 -19.7447 -2.1737 -9.2189 26.4825 -0.6677 -12.7056 -24.7762 -0.0564 1.5326 -4.2155 3.5827 0.6611 4.5487 -1.7080 0.9750 1.2925 -3.8252 0.4675 -1.1286 -10.7861 -5.4789 -17.2070 5.4572 -7.2572 27.5273 2.6672 -3.9781 12.6091 0.0000 0.0000 0.0000 -82.7343 12.4857 19.3223 21.5180 -32.4280 -6.3254 -0.0000 0.0000 -3.1992 8.0333 37.2912 4.8874 -7.1250 0.0000 -0.0000 -33.2464 64.5472 -16.5911 0.0000 0.0000 0.0000 39.6580 55.7427 -14.9645 -55.2603 54.9086 -30.4289 0.0000 0.0000 18.6591 -24.1927 7.2106 -3.2275 7.1250 -0.0000 -0.0000 1.8981 -22.0848 1.0457
0.00 0.00 0.00 -178.4960 -22.4630 -168.2010 0.0000 0.0000 0.0000 -7.5672 -5.9044 -21.3265 3.4700 11.4195 33.7082 0.0410 -9.6239 -7.4371 0.4495 -4.3014 -11.9261 0.0000 0.0000 0.0000 26.7041 -1.2287 -18.5611 -2.1379 -9.1476 26.2582 -0.9724 -10.4932 -25.1850 -0.0888 1.9217 -5.2894 0.6998 1.5420 3.1617 -0.5864 2.0265 1.7197 -1.0537 1.0011 0.0369 -9.4862 -2.9337 -16.5025 1.6755 -3.3760 30.1825 1.6250 -2.8377 13.0653 -0.0000 -0.0000 0.0000 -85.3218 10.0971 22.3071 18.7719 -29.1343 -4.9193 -0.0000 -0.0000 4.5707 2.8607 33.5273 1.5810 -7.1250 0.0000 -0.0000 -34.1933 60.1469 -13.5691 -0.0000 -0.0000 0.0000 39.5580 57.0007 -11.3826 -59.9885 56.3069 -34.3315 0.0000 0.0000 16.4112 -18.8849 6.4865 -2.2131 7.1250 -0.0000 -0.0000 5.7889 -23.1362 3.0639
0.00 0.00 0.00 -181.3770 -17.7595 -168.0330 0.0000 0.0000 0.0000 -20.1780 2.0205 -17.8240 0.9043 6.0603 16.9593 -0.0300 -12.0645 -8.0411 0.0359 -1.2230 -3.3626 0.0000 0.0000 0.0000 15.5766 -5.7881 -25.9367 -4.9849 -13.3667 40.7572 -1.3490 -1.6294 -22.5878 -0.6451 5.1380 -14.3027 -4.9510 2.0393 1.8099 -0.6120 2.6028 2.7235 2.1252 1.1764 1.5944 -13.2532 -4.5616 -16.7721 -0.7640 -3.8972 29.6072 1.1896 -3.8117 13.0470 0.0000 -0.0000 0.0000 -82.2258 -1.5811 22.8361 30.9802 -41.7189 -12.0567 -0.0000 0.0000 -2.2400 8.2647 36.6604 4.9567 -7.1250 0.0000 -0.0000 -32.2197 64.0929 -15.6888 0.0000 -0.0000 0.0000 28.1936 57.6821 -17.9252 -43.8847 50.2102 -21.3782 0.0000 0.0000 4.8009 -22.0789 15.6619 -6.2492 7.1250 -0.0000 -0.0000 3.7473 -13.1727 2.8008
